<?xml version="1.0" encoding="UTF-8" standalone="no"?>
<svg
   xmlns:dc="http://purl.org/dc/elements/1.1/"
   xmlns:cc="http://creativecommons.org/ns#"
   xmlns:rdf="http://www.w3.org/1999/02/22-rdf-syntax-ns#"
   xmlns:svg="http://www.w3.org/2000/svg"
   xmlns="http://www.w3.org/2000/svg"
   xmlns:sodipodi="http://sodipodi.sourceforge.net/DTD/sodipodi-0.dtd"
   xmlns:inkscape="http://www.inkscape.org/namespaces/inkscape"
   sodipodi:docname="flyer.svg"
   inkscape:version="1.0 (4035a4fb49, 2020-05-01)"
   id="svg8"
   version="1.1"
   viewBox="0 0 210 148"
   height="559.37006"
   width="793.70081">
  <defs
     id="defs2" />
  <sodipodi:namedview
     inkscape:window-maximized="1"
     inkscape:window-y="116"
     inkscape:window-x="1272"
     inkscape:window-height="816"
     inkscape:window-width="1440"
     inkscape:snap-to-guides="true"
     inkscape:snap-grids="true"
     inkscape:snap-center="false"
     inkscape:snap-object-midpoints="true"
     inkscape:snap-page="true"
     inkscape:snap-intersection-paths="true"
     inkscape:guide-bbox="true"
     showguides="false"
     units="px"
     showgrid="false"
     inkscape:document-rotation="0"
     inkscape:current-layer="layer1"
     inkscape:document-units="mm"
     inkscape:cy="331.71102"
     inkscape:cx="592.23952"
     inkscape:zoom="0.7"
     inkscape:pageshadow="2"
     inkscape:pageopacity="0.0"
     borderopacity="1.0"
     bordercolor="#666666"
     pagecolor="#ffffff"
     id="base">
    <sodipodi:guide
       id="guide835"
       orientation="1,0"
       position="10,138" />
    <sodipodi:guide
       id="guide837"
       orientation="0,-1"
       position="105,74.000007" />
    <sodipodi:guide
       id="guide839"
       orientation="1,0"
       position="210,0" />
    <sodipodi:guide
       id="guide841"
       orientation="0,-1"
       position="209.99999,0" />
    <sodipodi:guide
       id="guide909"
       orientation="1,0"
       position="105,74.000005" />
    <sodipodi:guide
       id="guide915"
       orientation="0,-1"
       position="9.9999997,138" />
    <sodipodi:guide
       id="guide932"
       orientation="1,0"
       position="200,9.9999944" />
    <sodipodi:guide
       id="guide934"
       orientation="0,-1"
       position="200,9.9999944" />
    <sodipodi:guide
       id="guide936"
       orientation="0,-1"
       position="53.672618,148" />
    <sodipodi:guide
       id="guide938"
       orientation="1,0"
       position="0,107.93452" />
  </sodipodi:namedview>
  <metadata
     id="metadata5">
    <rdf:RDF>
      <cc:Work
         rdf:about="">
        <dc:format>image/svg+xml</dc:format>
        <dc:type
           rdf:resource="http://purl.org/dc/dcmitype/StillImage" />
        <dc:title></dc:title>
      </cc:Work>
    </rdf:RDF>
  </metadata>
  <g
     id="layer1"
     inkscape:groupmode="layer"
     inkscape:label="Ebene 1">
    <rect
       rx="210"
       height="0"
       width="0"
       y="-46.113098"
       x="-70.303574"
       id="rect833"
       style="fill:#fbe0b5;fill-opacity:1;stroke-width:2.64583;stroke-linecap:round;stroke-linejoin:round" />
    <rect
       y="-4.6908667e-06"
       x="0"
       height="147.99998"
       width="210"
       id="rect843"
       style="fill:#fbe0b5;fill-opacity:1;stroke-width:2.64583;stroke-linecap:round;stroke-linejoin:round" />
    <g
       transform="translate(0,-2.1166667)"
       id="g1037">
      <g
         style="fill:#333333;fill-opacity:1;stroke-width:2.46926"
         id="g60"
         transform="matrix(0.10715088,0,0,0.10715088,-764.76568,192.47672)">
        <g
           style="fill:#333333;fill-opacity:1;stroke-width:2.46926"
           id="g6">
          <path
             style="fill:#333333;fill-opacity:1;stroke-width:2.46926"
             id="path4"
             d="m 8534.9,-1286.2 c -9.1,-21.1 -20.1,-41.8 -32.4,-61.4 -18,-28.6 -39.4,-55.4 -63.5,-79.5 -0.2,-0.2 -0.4,-0.4 -0.6,-0.6 -0.2,-0.2 -0.4,-0.3 -0.5,-0.5 -2.2,-2.2 -4.5,-4.4 -6.8,-6.6 l -2.6,-2.5 c -0.5,-0.5 -1.1,-1 -1.6,-1.5 l -0.7,-0.7 c -0.6,-0.5 -1.1,-1 -1.5,-1.4 -0.8,-0.8 -1.6,-1.5 -2.5,-2.3 l -0.2,-0.2 c 0,0 0,0 -0.1,-0.1 -1.3,-1.2 -2.7,-2.4 -4.4,-3.9 l -3.2,-2.8 c -0.2,-0.1 -0.3,-0.3 -0.5,-0.4 l -1.1,-0.9 c -0.9,-0.8 -1.8,-1.5 -2.7,-2.3 l -2.4,-2 -0.1,-0.1 c -1.1,-0.9 -2.3,-1.9 -3.4,-2.8 -1.4,-1.1 -2.8,-2.3 -4.2,-3.4 l -0.3,-0.3 c -1.4,-1.1 -2.6,-2.1 -3.7,-2.9 l -2.3,-1.8 c -0.1,-0.1 -0.3,-0.2 -0.4,-0.3 l -1.9,-1.5 c -0.3,-0.2 -0.5,-0.4 -0.8,-0.6 -0.5,-0.4 -1,-0.7 -1.5,-1.1 l -1.3,-1 c -0.9,-0.7 -1.9,-1.4 -2.9,-2.1 l -0.1,-0.1 c -1.4,-1 -2.8,-2 -4,-2.9 l -4.9,-3.5 c -0.2,-0.2 -0.4,-0.3 -0.7,-0.5 l -0.5,-0.3 c -2,-1.4 -4,-2.7 -6.1,-4.1 -0.2,-0.1 -0.4,-0.3 -0.6,-0.4 -0.1,-0.1 -0.2,-0.1 -0.2,-0.2 0,-0.1 -0.1,-0.2 -0.2,-0.3 -0.2,-0.2 -0.3,-0.3 -0.5,-0.4 l -0.3,-0.3 c -0.2,-0.2 -0.4,-0.3 -0.7,-0.3 v 0 c -0.1,-0.1 -0.3,-0.1 -0.4,-0.2 -0.2,-0.1 -0.4,-0.2 -0.4,-0.2 l -0.4,-0.3 c -0.4,-0.3 -0.8,-0.5 -1.2,-0.8 -0.1,-0.1 -0.3,-0.2 -0.4,-0.3 l -0.3,-0.2 c -0.5,-0.4 -1.1,-0.7 -1.6,-1.1 l -0.3,-0.2 c -0.2,-0.1 -0.4,-0.3 -0.6,-0.4 -2.2,-1.4 -4.2,-2.7 -6.2,-3.9 -0.5,-0.3 -1,-0.6 -1.4,-0.9 -0.3,-0.2 -0.5,-0.3 -0.7,-0.4 l -4.4,-2.6 c -2.3,-1.3 -4.4,-2.6 -6.5,-3.7 0,0 -0.1,-0.1 -0.1,-0.1 -5.8,-3.3 -11.9,-6.5 -18.5,-9.9 -50.3,-25.5 -104.5,-41.2 -161,-46.7 0,0 -0.1,0 -0.1,0 -14.7,-1.4 -29.7,-2.2 -44.7,-2.2 -2.9,0 -5.7,0 -8.6,0.1 -1.3,0 -2.6,0.1 -3.8,0.1 -1.1,0 -2.1,0 -3.1,0.1 l -2.4,0.1 c -1.4,0.1 -2.9,0.1 -4.3,0.2 l -1.7,0.1 c -2.2,0.1 -4.5,0.2 -6.7,0.4 -1.3,0.1 -2.6,0.2 -3.9,0.3 l -2.5,0.2 c -3.3,0.3 -6.8,0.6 -10.2,1 -2.4,0.2 -4.5,0.5 -6.7,0.7 -2.2,0.2 -4.4,0.5 -6.7,0.9 -0.9,0.1 -1.9,0.2 -2.8,0.4 -1.6,0.2 -3.2,0.5 -4.9,0.7 h -0.1 c -1.7,0.2 -3.4,0.5 -5.1,0.8 -1.7,0.3 -3.3,0.5 -5.2,0.9 -1.7,0.3 -3.5,0.6 -5.2,0.9 -1.2,0.2 -2.4,0.4 -3.5,0.7 -4.2,0.8 -8.1,1.6 -12,2.5 -1,0.2 -1.9,0.4 -2.6,0.6 -0.9,0.2 -1.8,0.4 -2.6,0.6 -1.8,0.4 -3.5,0.8 -5.2,1.3 -3.7,0.9 -7,1.8 -10.3,2.7 -1.5,0.4 -3.3,0.9 -5.1,1.4 -3,0.9 -6.3,1.8 -10.2,3.1 -1.7,0.5 -3.4,1.1 -5.1,1.6 -1.7,0.5 -3.4,1.1 -5.3,1.8 l -0.2,0.1 c -1.6,0.5 -3.1,1.1 -4.6,1.6 -1.5,0.5 -3.2,1.1 -5,1.8 -1.3,0.5 -2.6,0.9 -3.9,1.4 l -1.2,0.4 c -1.5,0.6 -3.3,1.2 -4.7,1.9 -0.2,0 -0.5,0.1 -0.7,0.2 l -0.4,0.1 c -0.1,0 -0.1,0 -0.2,0.1 -5.7,2 -11.3,4.3 -16.6,6.9 l -0.3,0.1 c -2.3,1 -4.6,2 -6.9,3.1 -2.8,1.3 -4.9,2.3 -6.9,3.3 -2.8,1.3 -4.9,2.4 -6.9,3.4 -2.5,1.2 -4.7,2.4 -6.8,3.5 -2.1,1.1 -4.1,2.2 -6.3,3.4 l -0.2,0.1 c -6.8,3.7 -13.6,7.6 -20.2,11.7 0,0 0,0 -0.1,0 -30.2,18.5 -58.3,40.8 -83.7,66.1 -12.1,12.1 -23.7,25.1 -34.4,38.5 0,0 -0.1,0.1 -0.1,0.1 -0.2,0.2 -0.3,0.4 -0.5,0.7 l -0.4,0.6 c -6.2,7.8 -12.1,15.7 -17.5,23.6 -47.1,68.1 -74.6,147.9 -79.6,231 0,0 0,0.1 0,0.1 -0.3,5.4 -0.5,11.2 -0.7,17.9 -1.5,73.3 14.8,146.6 47.2,211.9 0,0 0,0.1 0,0.1 l 0.2,0.3 c 21.9,44 50.8,84.1 85.9,119.2 9.4,9.4 19.6,18.7 30.2,27.6 15.1,12.6 31,24.3 47.2,34.6 10.1,6.4 21,12.7 32.4,18.8 19.7,10.4 40.1,19.3 60.7,26.6 1.5,0.5 3.1,1.1 4.7,1.6 0.8,0.2 1.5,0.5 2.3,0.8 0.8,0.3 1.5,0.5 2.3,0.8 1.6,0.5 3.2,1.1 4.8,1.6 3.6,1.1 7.2,2.2 10.7,3.2 0.5,0.1 1,0.3 1.5,0.5 0.6,0.2 1.3,0.4 2,0.6 3.7,1 7.8,2.1 12.7,3.3 0.3,0.1 0.5,0.1 0.8,0.2 0.3,0.1 0.6,0.2 0.9,0.2 3.8,0.9 7.7,1.8 11.1,2.5 0.5,0.1 1,0.2 1.5,0.3 0.6,0.1 1.3,0.3 1.9,0.4 1.2,0.2 2.3,0.5 3.5,0.7 0.7,0.1 1.5,0.3 2.2,0.4 22.5,4.4 45.2,7.2 67.6,8.2 0,0 0.1,0 0.1,0 h 0.3 c 6.8,0.3 13.7,0.5 20.5,0.5 35.9,0 72,-4.3 107.1,-12.8 38.7,-9.3 75.8,-23.6 110.4,-42.4 0,0 0.1,0 0.1,0 14.2,-7.7 28.2,-16.3 41.5,-25.6 22.3,-15.5 43.4,-33.1 62.8,-52.5 22.1,-22.1 41.9,-46.4 59,-72.4 2.3,-3.5 4.6,-7.1 6.9,-10.9 0,0 0,0 0,-0.1 l 0.2,-0.3 c 16.2,-26.2 29.7,-54.3 40.2,-83.3 17.6,-48.6 26.7,-99.6 27.1,-151.5 0,0 0,0 0,0 0.3,-63.6 -12.3,-125.7 -37.6,-184.1 z M 8216,-665.7 c -0.6,0.1 -1.2,0.3 -1.9,0.4 l -0.7,0.2 c -3.3,0.7 -6.6,1.5 -9.9,2.1 -0.4,0.1 -0.8,0.1 -1.2,0.2 -0.4,0.1 -0.7,0.1 -1.1,0.2 -3.5,0.7 -8.1,1.5 -12.7,2.3 -0.2,0 -0.3,0 -0.5,0.1 -0.2,0 -0.3,0 -0.5,0.1 -29.8,4.7 -60.1,6.4 -90.2,5.1 -35.7,-20.2 -68.6,-45.3 -97.6,-74.7 -2.4,-2.5 -5,-5.1 -7.6,-7.9 -1.6,-1.6 -3.2,-3.4 -4.5,-4.9 -1.6,-1.7 -3.7,-4.1 -5.8,-6.4 -1,-1.2 -2,-2.3 -3.1,-3.5 -0.8,-0.9 -1.5,-1.7 -2.1,-2.5 -0.9,-1 -1.8,-2.1 -2.8,-3.3 -1.9,-2.3 -3.9,-4.7 -5.9,-7.3 -1.5,-1.9 -3.1,-3.9 -4.9,-6.2 -2.1,-2.7 -4.1,-5.4 -6.2,-8.2 -1.8,-2.5 -3.7,-5 -5.5,-7.6 l -0.5,-0.6 c 0,0 0,0 0,0 -1.5,-2.2 -2.8,-4 -3.9,-5.8 -1.4,-2 -2.5,-3.7 -3.5,-5.3 0,0 -0.1,-0.1 -0.1,-0.1 0,0 -0.1,-0.1 -0.1,-0.1 -1.2,-1.8 -2.3,-3.4 -3.3,-5.1 l -0.1,-0.1 c -1.1,-1.8 -2.3,-3.6 -3.4,-5.4 -1,-1.6 -2,-3.3 -3,-4.9 l -0.3,-0.6 c -2,-3.4 -4.1,-6.9 -6.3,-11 0,0 -0.1,-0.1 -0.1,-0.1 -1,-1.7 -2,-3.5 -3.1,-5.6 -0.9,-1.6 -1.8,-3.3 -2.7,-4.9 -0.4,-0.7 -0.7,-1.4 -1.2,-2.2 0,0 0,-0.1 0,-0.1 -0.7,-1.3 -1.4,-2.6 -2.1,-4 -1.8,-3.4 -3.6,-7.2 -5.6,-11.5 -0.1,-0.2 -0.2,-0.4 -0.3,-0.5 l -0.3,-0.7 c -0.7,-1.5 -1.4,-3 -2.1,-4.6 -0.9,-1.9 -1.8,-3.9 -2.6,-5.8 l -1.4,-3.2 c -0.4,-0.9 -0.8,-1.7 -1.1,-2.7 -1.4,-3.5 -3,-7.2 -4.6,-11.4 -0.1,-0.3 -0.2,-0.5 -0.3,-0.7 -0.7,-1.9 -1.5,-3.8 -2.2,-5.8 -1.3,-3.5 -2.7,-7.3 -4.3,-12 -3.7,-10.7 -7,-22 -10,-33.5 -0.9,-3.7 -1.9,-7.6 -2.8,-11.8 -0.1,-0.5 -0.2,-1 -0.3,-1.5 l -0.2,-0.8 c -1,-4.3 -1.7,-7.8 -2.3,-11 -0.6,-3.2 -1.1,-6 -1.6,-8.6 -0.6,-3.1 -1,-5.9 -1.4,-8.6 -0.4,-2.8 -0.9,-5.6 -1.3,-8.5 l -1,0.1 v 0 l 1,-0.3 c -0.3,-2.1 -0.5,-4.2 -0.8,-6.2 -0.1,-1 -0.2,-2.1 -0.4,-3 -0.3,-2.3 -0.5,-4.6 -0.7,-6.9 -0.2,-1.3 -0.3,-2.6 -0.4,-4.2 -0.3,-2.6 -0.4,-4.7 -0.6,-6.8 0,-0.5 -0.1,-1 -0.1,-1.6 v -0.5 c -0.2,-2.8 -0.4,-5.7 -0.5,-8.8 -0.1,-1.1 -0.1,-2.1 -0.1,-3.3 0,-0.9 -0.1,-1.7 -0.1,-2.6 20.3,36 45.4,69 74.8,98.4 28.5,28.5 60.4,53 94.9,72.8 45.3,26.1 94.4,44.1 146.1,53.3 26.5,4.8 53.6,7.2 80.8,7.2 42.2,0 83.9,-5.7 124.1,-17 36.8,-10.3 72.4,-25.5 105.7,-45 -17.3,26.8 -37.5,51.8 -60,74.3 -30.8,30.8 -65.5,56.8 -103.3,77.3 -4.5,2.4 -9,4.8 -13.6,7.1 -0.3,0.2 -0.6,0.3 -1,0.5 -0.3,0.1 -0.6,0.3 -0.9,0.4 -4.7,2.3 -8.5,4.1 -12,5.7 -0.3,0.1 -0.6,0.3 -0.9,0.4 -0.3,0.1 -0.6,0.3 -0.9,0.4 -4.7,2.1 -8.6,3.8 -12.2,5.3 -0.8,0.4 -1.7,0.7 -2.5,1 -0.6,0.2 -1.3,0.5 -1.9,0.7 l -1.3,0.5 c -2.8,1.1 -5.6,2.3 -8.4,3.3 -1.1,0.4 -2.2,0.8 -3.3,1.2 -0.7,0.3 -1.5,0.5 -2.2,0.8 l -2.1,0.8 c -2.2,0.8 -4.5,1.6 -6.7,2.4 -1.5,0.5 -3,1 -4.5,1.5 -0.8,0.3 -1.6,0.5 -2.5,0.8 -0.8,0.3 -1.6,0.5 -2.4,0.8 -1.7,0.6 -3.4,1.1 -5.1,1.6 -2.3,0.7 -4.6,1.3 -6.8,1.9 l -2.1,0.6 c -0.6,0.2 -1.1,0.3 -1.7,0.5 -0.8,0.2 -1.6,0.5 -2.5,0.7 -0.3,0.1 -0.5,0.1 -0.8,0.2 -0.3,0.1 -0.5,0.2 -0.8,0.2 -1.4,0.4 -2.9,0.7 -4.3,1.1 -0.8,0.2 -1.6,0.4 -2.4,0.6 l -2.4,0.6 c -1.9,0.5 -3.8,1 -5.7,1.4 -0.8,0.4 -1.6,0.5 -2.4,0.7 z m -331.2,-499.1 c 17.8,-43.6 59.7,-71.7 106.9,-71.7 8,0 16,0.8 23.8,2.4 17.1,3.6 32.9,10.9 46.9,21.7 19.5,15 33.3,35.3 40.2,58.6 3.1,10.6 4.7,21.6 4.7,32.7 0,39.8 -21.1,77.4 -55.1,98.4 -1.8,-3.8 -3.4,-7.5 -4.7,-11 l -0.1,-0.3 c -1,-2.6 -1.8,-4.8 -2.6,-7 -3.5,-10.1 -12.3,-17.1 -22.5,-17.9 -2.3,-0.2 -4.7,0 -7.1,0.4 -10.9,2 -19.6,10.5 -21.8,21.3 -1.8,9 0.9,18.2 7.3,24.6 4.8,4.9 11.8,7.7 19,7.7 3,0 5.9,-0.5 8.8,-1.4 2,-0.6 4,-1.3 6,-2.1 l 1,-0.4 c 0,0 0.1,0 0.1,-0.1 4.9,-1.9 9.7,-4.2 14.4,-6.7 33.8,67.9 104.5,111.8 180.4,111.8 2.5,0 5.1,0 7.6,-0.1 0.6,0 1.3,-0.1 1.9,-0.1 0.4,0 0.8,0 1.2,-0.1 l 1.1,-0.1 c 1.1,-0.1 2.3,-0.1 3.4,-0.2 0.7,-0.1 1.5,-0.1 2.2,-0.2 l 2.5,-0.2 c 0.9,-0.1 1.9,-0.2 2.8,-0.3 0.9,-0.1 1.8,-0.2 2.7,-0.4 l 2.4,-0.3 c 0.8,-0.1 1.6,-0.2 2.4,-0.3 1,-0.1 2,-0.3 2.9,-0.5 l 2.4,-0.4 c 0.7,-0.1 1.4,-0.2 2.2,-0.4 1,-0.2 2,-0.4 2.9,-0.6 l 2.3,-0.5 c 0.7,-0.1 1.5,-0.3 2.2,-0.5 0.9,-0.2 1.8,-0.4 2.7,-0.7 l 2.3,-0.6 c 0.8,-0.2 1.6,-0.4 2.3,-0.6 0.8,-0.2 1.6,-0.5 2.4,-0.7 l 0.2,-0.1 c -0.6,0.3 -1.2,0.6 -1.8,0.9 -39.3,19.9 -81.5,33.8 -125.3,41.5 -39,6.8 -78.6,8.6 -117.6,5.1 -33.9,-19.6 -65.4,-43.7 -93.4,-71.8 -31.3,-31.4 -57.7,-66.8 -78.4,-105.4 -0.4,-29.3 2.1,-58.7 7.4,-87.5 2.2,-11.9 4.9,-23.8 8.1,-35.5 0.2,-0.2 0.3,-0.4 0.3,-0.7 0.1,0.4 0.1,0.3 0.1,0.3 z m 162.7,144.7 c -4.6,2.5 -9.5,4.8 -14.5,6.7 h -1.2 c -0.5,0 -0.9,0.4 -1,0.8 -1.3,0.5 -2.7,0.9 -4,1.4 -8,2.6 -16.8,0.6 -22.4,-5 -5.2,-5.2 -7.4,-12.6 -5.9,-19.9 1.8,-8.7 8.8,-15.6 17.5,-17.2 1.4,-0.2 2.9,-0.4 4.2,-0.4 0.5,0 1,0 1.5,0.1 8,0.6 15.1,6.3 17.9,14.4 0.7,2.1 1.6,4.4 2.5,6.9 l 0.1,0.3 c 0,0 0,0 0,0 1.7,4 3.4,8 5.3,11.9 z m 322.5,-209.8 c -1.5,-11.9 -3.4,-23.7 -5.8,-35.2 -0.2,-0.9 -0.4,-1.9 -0.6,-2.9 l -0.4,-2.2 c -1.7,-8.8 1.2,-17.6 7.6,-22.9 4.3,-3.6 9.7,-5.6 15.3,-5.6 0.2,0 0.4,0 0.6,0 12.8,0.3 23.3,11 23.3,23.9 0,0.6 0,1.1 0,1.7 v 0.2 c -0.4,4.7 -2.5,9.4 -6.1,13.7 -0.9,1.1 -1.8,2.1 -2.7,3.1 -9.1,10.2 -19.6,19 -31.2,26.2 z m -73.5,27 h 1.1 c 6.5,-0.2 13.2,-0.8 20,-1.9 7.5,-1.2 14.8,-2.9 21.9,-5 0.2,0.1 0.4,0.1 0.6,0 2.1,-0.7 4,-1.3 5.8,-2 0.2,-0.1 0.4,-0.1 0.7,-0.2 3.3,-1.2 6.2,-2.4 8.9,-3.6 l 0.4,-0.2 c 3.2,-1.4 6.5,-3 9.9,-4.9 2.3,21.3 3,42.8 2.1,64.1 -1.6,43.9 -9.9,87.5 -24.4,129.7 -13.6,39.3 -32.3,76.2 -55.6,109.9 -0.6,0.2 -1.2,0.4 -1.9,0.5 l -2,0.6 c -0.8,0.2 -1.6,0.5 -2.4,0.7 -0.8,0.2 -1.6,0.4 -2.5,0.6 l -2.3,0.6 c -0.8,0.2 -1.6,0.4 -2.4,0.6 -0.8,0.2 -1.6,0.3 -2.4,0.5 l -2.4,0.5 c -0.8,0.2 -1.6,0.3 -2.4,0.5 -0.8,0.2 -1.7,0.3 -2.5,0.4 l -2.3,0.4 c -0.8,0.1 -1.6,0.3 -2.4,0.4 -0.9,0.1 -1.8,0.2 -2.6,0.4 l -2.4,0.3 c -0.8,0.1 -1.5,0.2 -2.3,0.3 -1,0.1 -2,0.2 -3,0.3 l -1.1,0.1 c -0.4,0 -0.8,0.1 -1.2,0.1 -0.7,0.1 -1.4,0.1 -2,0.2 -1.3,0.1 -2.5,0.2 -3.8,0.2 h -0.9 c -0.4,0 -0.7,0 -1.1,0.1 -0.5,0 -1.1,0.1 -1.6,0.1 -2.5,0.1 -5,0.1 -7.4,0.1 -74.2,0 -143.4,-43 -176.3,-109.5 35.8,-21.8 58,-61.1 58,-103 0,-37.5 -17,-72.2 -46.7,-95.2 -13.6,-10.5 -28.7,-17.9 -45.1,-21.8 21,-3 41.3,-10.4 59.1,-21.7 3.1,-1.9 6.1,-4 9,-6.2 8.7,-6.4 16.8,-13.9 23.9,-22.1 h 0.1 c 0.2,-0.1 0.4,-0.3 0.5,-0.4 l 0.1,-0.3 c 1.6,-1.8 3.2,-3.8 5.1,-6.3 0.4,-0.5 0.8,-1.1 1.2,-1.6 1.9,-2.5 3.4,-4.6 4.7,-6.6 l 0.1,-0.2 c 1.3,-2 2.7,-4.2 4.2,-6.7 0.4,-0.6 0.7,-1.2 1,-1.8 1.5,-2.6 2.8,-4.9 3.9,-7.1 l 0.2,-0.4 c 1.1,-2.1 2.1,-4.4 3.3,-7 0.3,-0.6 0.5,-1.2 0.8,-1.9 1.2,-2.8 2.1,-5.2 2.9,-7.4 l 0.2,-0.5 c 0.8,-2.2 1.6,-4.6 2.4,-7.2 0.2,-0.6 0.4,-1.3 0.6,-1.9 0,-0.1 0.1,-0.2 0.1,-0.4 3.7,78.8 67.4,141.1 146.7,142.7 1.8,0.2 3.7,0.1 5.9,0.1 z m -334.4,-34.8 c -28.8,7.2 -54,25.2 -70.4,49.8 l 0.3,-0.9 c 0.7,-2.2 1.5,-4.4 2.3,-6.6 2.6,-7.3 5.3,-14.7 8.2,-21.8 0.7,-1.8 1.4,-3.6 2.3,-5.5 0.8,-1.9 1.5,-3.7 2.4,-5.5 1.6,-3.8 3.2,-7.3 5,-10.9 0.1,-0.2 0.2,-0.4 0.3,-0.6 0.1,-0.2 0.2,-0.4 0.3,-0.6 0.7,-1.4 1.3,-2.8 2,-4.2 0.5,-1 1,-2.1 1.5,-3.1 l 0.3,-0.5 c 0.1,-0.3 0.3,-0.5 0.4,-0.8 0.1,-0.3 0.3,-0.6 0.4,-0.9 1.2,-2.5 2.6,-5.1 4.2,-8.2 15,9.1 31.2,15.4 48.4,18.8 -2.8,0.2 -5.4,0.8 -7.9,1.5 z m -67,-48 h -0.5 c -0.6,-0.6 -1.1,-1.1 -1.5,-1.5 -1.4,-1.3 -1.9,-1.8 -4,-4.5 0,0 -0.1,-0.1 -0.1,-0.1 -0.3,-0.4 -0.8,-1 -1.6,-2 l -0.5,-0.6 c -0.4,-0.5 -0.8,-1 -1,-1.3 -2.3,-4.3 -3.5,-9.1 -3.5,-14.1 0,-8.5 3.6,-16.6 9.9,-22.3 6.4,-5.8 14.6,-8.4 23.2,-7.6 13.2,1.4 24.4,11.9 26.5,24.9 0,0.1 0,0.1 0,0.2 0,0.1 0,0.1 0,0.2 1.4,9.3 -3.1,18.6 -11.5,23.6 -8.7,5.2 -17.1,10.6 -24.4,15.7 -3.6,-3 -6.9,-6 -10.1,-9.3 v -0.4 c 0.1,-0.5 -0.3,-0.9 -0.9,-0.9 z m 618.1,99 c -19.7,67.3 -55.4,130 -103.3,181.5 -11.3,12.2 -23.5,23.8 -36,34.6 -0.2,0 -0.5,0.1 -0.6,0.3 -0.1,0.1 -0.2,0.3 -0.3,0.5 -12.9,11.1 -26.7,21.5 -41,31.1 -0.3,0 -0.5,0.2 -0.7,0.4 0,0 -0.1,0.1 -0.1,0.1 -5.5,3.7 -11.1,7.2 -16.7,10.6 h -0.3 c -0.2,0 -0.4,0.1 -0.6,0.2 l -0.3,0.3 c -5.3,2.5 -11,4.8 -16.9,6.9 21.8,-32.6 39.4,-68 52.3,-105.2 14.7,-42.6 23,-86.8 24.7,-131.2 0.9,-22.6 0.1,-45.3 -2.5,-67.6 12.8,-7.7 24.4,-17.2 34.4,-28.4 0,0 0.1,-0.1 0.1,-0.1 1,-1.1 1.9,-2.1 2.8,-3.2 4.3,-5.1 6.9,-10.9 7.3,-16.8 0,-0.7 0.1,-1.4 0.1,-2.2 -0.1,-15.6 -12.8,-28.6 -28.4,-29.1 -7.1,-0.1 -14,2.3 -19.4,6.8 -7.8,6.5 -11.4,17.2 -9.4,27.9 l 0.5,2.5 c 0.2,0.9 0.3,1.8 0.5,2.7 2.5,12 4.5,24.5 6,37 -20.5,11.7 -43.9,18.2 -67.8,18.8 -1.2,0 -2.5,0.1 -3.7,0.1 h -0.8 c -0.7,0 -1.4,0 -2.2,-0.1 -9.6,-0.2 -19.1,-1.3 -28.4,-3.3 -54.5,-12.2 -97.8,-55.4 -110.1,-109.9 -2.1,-9.4 -3.2,-19 -3.4,-28.7 -0.1,-0.9 -0.1,-1.8 -0.1,-2.8 0,-1.3 0,-2.5 0.1,-3.9 0,-0.2 -0.1,-0.4 -0.2,-0.6 0,-1.5 0.1,-3.1 0.2,-4.8 0.3,-4.6 0.7,-9.2 1.4,-13.6 0.1,-0.1 0.2,-0.3 0.3,-0.5 7.8,-50.5 42.1,-93.6 89.6,-112.7 0.1,0 0.2,0.1 0.3,0.1 0.3,0 0.5,-0.1 0.7,-0.3 l 0.4,-0.4 c 16.8,-6.6 34.6,-9.9 52.9,-9.9 24.2,0 48.1,6 69.2,17.5 l 0.2,0.2 c 0.2,0.2 0.4,0.3 0.7,0.3 h 0.2 c 0.3,0.2 0.7,0.4 1,0.7 0.3,0.2 0.7,0.5 1,0.7 3.2,2.1 6.1,4.1 8.8,6 1.1,0.8 2.3,1.6 3.4,2.4 l 0.5,0.3 c 2.5,1.8 5,3.7 7.6,5.6 l 0.9,0.7 c 0.9,0.7 1.9,1.4 2.8,2.1 2.7,2.1 5.6,4.3 8.7,6.9 l 0.5,0.4 c 0.8,0.6 1.6,1.3 2.4,1.9 l 1.1,0.9 c 2.9,2.4 5.5,4.6 8.1,6.9 1.3,1.1 2.6,2.3 3.9,3.4 l 0.3,0.2 c 2.1,1.8 4.1,3.7 6.2,5.6 l 0.5,0.5 c 1.2,1.1 2.4,2.2 3.6,3.3 2.4,2.2 4.8,4.6 7.5,7.2 0.3,0.3 0.6,0.6 0.9,0.9 0.4,0.4 0.8,0.7 1.1,1.1 22.6,22.6 42.8,47.6 60,74.1 0.5,0.7 0.9,1.5 1.4,2.2 l 1.7,2.6 c 0.9,1.3 1.7,2.7 2.5,4.1 1.6,2.7 3.2,5.3 4.5,7.5 0.1,0.2 0.3,0.5 0.4,0.7 0.2,0.3 0.3,0.5 0.5,0.8 8.8,15.1 16.8,30.8 23.7,46.9 -2.2,33.3 -7.9,66.3 -17.2,98.3 z m -218.8,-317.9 c -19,0 -37.5,3.5 -55,10.3 -44.1,17.2 -77.4,54.1 -90.2,99.4 -0.1,-1 -0.1,-1.9 -0.2,-2.9 l -0.1,-1.2 c 0,-0.4 -0.1,-0.8 -0.1,-1.2 -0.1,-0.7 -0.1,-1.5 -0.2,-2.2 -0.1,-1.1 -0.3,-2.1 -0.4,-3.2 l -0.2,-1.1 c -0.1,-0.4 -0.1,-0.8 -0.1,-1.2 -0.1,-0.7 -0.2,-1.4 -0.3,-2 -0.2,-1.1 -0.4,-2.2 -0.6,-3.3 l -0.2,-1 c -0.1,-0.4 -0.1,-0.7 -0.2,-1.1 -0.1,-0.6 -0.2,-1.3 -0.3,-1.9 -0.2,-1.2 -0.5,-2.4 -0.8,-3.5 l -0.2,-0.9 c -0.1,-0.4 -0.2,-0.7 -0.2,-1.1 -0.1,-0.6 -0.3,-1.2 -0.4,-1.7 -0.3,-1.2 -0.7,-2.4 -1,-3.6 l -0.3,-0.9 c -0.1,-0.3 -0.2,-0.7 -0.3,-1 -0.2,-0.5 -0.3,-1.1 -0.5,-1.6 -0.4,-1.2 -0.8,-2.5 -1.2,-3.7 l -0.3,-0.8 c -0.1,-0.3 -0.2,-0.7 -0.3,-1 -0.2,-0.5 -0.3,-1 -0.5,-1.5 -0.5,-1.4 -1.1,-2.8 -1.6,-4.1 l -0.2,-0.5 c -0.1,-0.3 -0.2,-0.6 -0.4,-0.9 -0.2,-0.4 -0.3,-0.9 -0.5,-1.3 -0.6,-1.4 -1.3,-2.8 -1.9,-4.2 l -0.2,-0.4 c -0.1,-0.3 -0.3,-0.6 -0.4,-0.8 -0.2,-0.4 -0.4,-0.8 -0.5,-1.2 -0.7,-1.4 -1.4,-2.9 -2.2,-4.2 l -0.2,-0.4 c -0.1,-0.3 -0.3,-0.5 -0.4,-0.8 -0.2,-0.4 -0.4,-0.7 -0.6,-1.1 -0.8,-1.5 -1.7,-3 -2.6,-4.5 l -0.1,-0.1 c -0.1,-0.2 -0.3,-0.5 -0.4,-0.7 -0.2,-0.3 -0.4,-0.7 -0.6,-1 -0.9,-1.6 -1.9,-3.1 -2.9,-4.5 -0.1,-0.2 -0.3,-0.4 -0.4,-0.7 -0.2,-0.3 -0.4,-0.6 -0.6,-0.9 -1,-1.5 -2.1,-3 -3.2,-4.5 -0.1,-0.2 -0.3,-0.4 -0.4,-0.6 -0.2,-0.3 -0.4,-0.5 -0.6,-0.8 -1.1,-1.4 -2.2,-2.8 -3.4,-4.3 -0.2,-0.2 -0.3,-0.4 -0.5,-0.6 -0.2,-0.3 -0.4,-0.5 -0.6,-0.8 -1.2,-1.5 -2.4,-2.8 -3.7,-4.2 -0.2,-0.2 -0.3,-0.3 -0.4,-0.5 -0.2,-0.2 -0.4,-0.5 -0.6,-0.7 -1.3,-1.4 -2.6,-2.8 -3.9,-4.1 -0.2,-0.2 -0.3,-0.3 -0.5,-0.5 -0.2,-0.2 -0.4,-0.4 -0.6,-0.6 -1.4,-1.4 -2.8,-2.7 -4.1,-3.9 -0.2,-0.2 -0.3,-0.3 -0.5,-0.5 -0.2,-0.2 -0.4,-0.4 -0.6,-0.6 -1.3,-1.2 -2.7,-2.4 -4.2,-3.6 -0.2,-0.2 -0.4,-0.3 -0.5,-0.5 -0.2,-0.2 -0.5,-0.4 -0.7,-0.6 -1.4,-1.2 -2.9,-2.3 -4.4,-3.5 -0.2,-0.1 -0.4,-0.3 -0.6,-0.4 -0.2,-0.2 -0.5,-0.4 -0.7,-0.6 -1.6,-1.2 -3.2,-2.3 -4.6,-3.3 -0.2,-0.1 -0.4,-0.3 -0.5,-0.4 -0.2,-0.2 -0.5,-0.3 -0.7,-0.5 -1.5,-1 -3.1,-2 -4.7,-3 -0.2,-0.1 -0.4,-0.3 -0.6,-0.4 -0.3,-0.2 -0.5,-0.3 -0.8,-0.5 -1.5,-0.9 -3.1,-1.8 -4.8,-2.8 -0.2,-0.1 -0.4,-0.2 -0.6,-0.4 -0.3,-0.2 -0.6,-0.3 -0.8,-0.5 -1.4,-0.8 -2.9,-1.5 -4.4,-2.2 l -0.3,-0.1 c -0.3,-0.1 -0.5,-0.3 -0.8,-0.4 -0.4,-0.2 -0.7,-0.4 -1.1,-0.5 -1.5,-0.7 -3,-1.4 -4.5,-2.1 l -0.3,-0.1 c -0.3,-0.1 -0.5,-0.2 -0.8,-0.4 -0.4,-0.2 -0.7,-0.3 -1.1,-0.5 -1.6,-0.7 -3.2,-1.3 -4.7,-1.9 l -0.2,-0.1 c -0.3,-0.1 -0.5,-0.2 -0.8,-0.3 -0.4,-0.1 -0.7,-0.3 -1.1,-0.4 -1.4,-0.5 -2.8,-1 -4.2,-1.4 l -0.6,-0.2 c -0.3,-0.1 -0.6,-0.2 -0.9,-0.3 -0.4,-0.1 -0.9,-0.3 -1.3,-0.4 -1.5,-0.5 -3.1,-0.9 -4.6,-1.3 l -0.4,-0.1 c -0.3,-0.1 -0.6,-0.2 -0.9,-0.2 -0.4,-0.1 -0.8,-0.2 -1.2,-0.3 -1.3,-0.3 -2.7,-0.7 -4,-0.9 l -0.8,-0.2 c -0.3,-0.1 -0.7,-0.2 -1,-0.2 -0.5,-0.1 -0.9,-0.2 -1.4,-0.3 -1.4,-0.3 -2.8,-0.5 -4.1,-0.7 l -0.8,-0.1 c -0.3,-0.1 -0.7,-0.1 -1,-0.2 -0.5,-0.1 -1,-0.2 -1.5,-0.3 -1.3,-0.2 -2.7,-0.4 -4.1,-0.5 l -0.9,-0.1 c -0.3,0 -0.7,-0.1 -1,-0.1 -0.5,-0.1 -1,-0.1 -1.5,-0.2 -1.7,-0.2 -3.4,-0.3 -5.1,-0.4 h -0.4 c -0.3,0 -0.6,0 -0.9,-0.1 -0.4,0 -0.8,-0.1 -1.2,-0.1 -2.6,-0.1 -5.2,-0.2 -7.7,-0.2 -2,0 -4.1,0 -6.2,0.1 -1.9,0.1 -3.8,0.2 -5.7,0.3 1.9,-0.6 3.7,-1.1 5.4,-1.6 1.7,-0.5 3.4,-1 5.1,-1.4 3.3,-0.9 6.6,-1.8 10.2,-2.7 1.7,-0.5 3.5,-0.9 5.1,-1.3 0.8,-0.2 1.6,-0.4 2.6,-0.6 0.7,-0.2 1.6,-0.4 2.5,-0.6 3.9,-0.9 7.8,-1.7 12,-2.5 1.1,-0.2 2.2,-0.5 3.4,-0.7 1.7,-0.3 3.4,-0.6 5.2,-0.9 1.7,-0.3 3.4,-0.6 5.2,-0.9 1.6,-0.3 3.3,-0.5 4.9,-0.8 h 0.2 c 1.6,-0.3 3.2,-0.5 4.8,-0.7 0.8,-0.1 1.7,-0.2 2.5,-0.3 h 0.2 c 2.4,-0.3 4.5,-0.6 6.7,-0.8 2.1,-0.3 4.1,-0.5 6.6,-0.7 3.5,-0.4 7,-0.7 10.4,-1 l 2.1,-0.2 c 1.3,-0.1 2.5,-0.2 3.8,-0.3 2.2,-0.2 4.3,-0.3 6.7,-0.4 l 1.8,-0.1 c 1.3,-0.1 2.7,-0.1 4.2,-0.2 l 2.5,-0.1 c 1,-0.1 2,-0.1 3,-0.1 1.2,-0.1 2.5,-0.1 3.9,-0.1 17.3,-0.4 35,0.3 52.7,2.1 40,3.9 79.1,13 116.2,27.2 16.6,6.3 33,13.7 48.9,22.1 4,2.1 7.5,4 10.7,5.8 -13.9,-4.4 -28.1,-6.4 -42.4,-6.4 z m -562.7,478.8 c 3.3,-11.3 7,-22.5 11.2,-33.4 17.9,-47.4 43.6,-91.2 76.4,-130.3 2.5,-2.9 5.2,-6.1 8.5,-9.9 l 0.3,-0.3 c 0.1,-0.1 0.2,-0.3 0.4,-0.4 l 0.5,-0.6 c 0.3,-0.3 0.6,-0.6 0.9,-1 0,0 0,-0.1 0.1,-0.1 0.1,-0.1 0.2,-0.2 0.4,-0.4 l 0.3,-0.3 c 3.4,-3.7 6,-6.5 8.5,-9.1 l 0.8,-0.8 c 3,-3.2 6.2,-6.4 9.3,-9.4 l 0.4,-0.4 c 0.2,-0.2 0.4,-0.3 0.5,-0.5 0.2,-0.1 0.3,-0.3 0.5,-0.4 6.7,-6.5 13.7,-12.9 20.7,-18.9 l 0.2,-0.2 c 0.3,-0.2 0.6,-0.5 0.9,-0.8 l 0.2,-0.2 c 3.8,-3.2 7.2,-6.1 10.6,-8.8 l 0.2,-0.2 c 2.9,-2.3 6.1,-4.8 10,-7.7 1,-0.7 2,-1.5 3,-2.2 3.2,-2.4 6.3,-4.6 9.3,-6.7 3.5,2.8 7.4,5.6 11.4,8.2 -1.8,3.3 -3.2,6.1 -4.5,8.7 -0.9,1.8 -1.8,3.6 -2.7,5.4 -0.2,0.4 -0.4,0.8 -0.6,1.3 l -0.7,1.5 c -0.4,0.9 -0.9,1.8 -1.3,2.6 -1.7,3.6 -3.3,7.2 -5,11 -0.8,1.8 -1.6,3.7 -2.4,5.6 -0.9,2 -1.6,3.9 -2.3,5.6 -2.9,7.2 -5.7,14.6 -8.3,22 l -0.1,0.2 c -0.8,2.2 -1.5,4.3 -2.2,6.6 l -0.3,0.9 c -0.1,0.4 -0.3,0.8 -0.4,1.2 -0.1,0.2 -0.1,0.4 -0.2,0.6 -0.7,2.1 -1.4,4.3 -2,6.2 l -0.2,0.7 c -0.4,1.4 -0.8,2.7 -1.2,4 -0.4,1.3 -0.8,2.6 -1.2,4 l -0.1,0.2 c -0.6,2.1 -1.2,4.3 -1.8,6.4 l -0.1,0.3 c -0.1,0.1 -0.1,0.2 -0.2,0.4 l -0.2,0.4 c -0.1,0.2 -0.1,0.5 0,0.7 -3.1,11.6 -5.8,23.4 -7.9,35.1 -5.4,29.3 -8,59.2 -7.5,89 0,0.5 0,0.9 0,1.2 0.1,2.6 0.1,5.2 0.2,7.9 0,1.1 0.1,2.2 0.1,3.5 0.2,4.5 0.4,8.6 0.7,12.5 0,0.6 0.1,1.3 0.1,1.8 0.1,2.1 0.3,4.3 0.6,7.1 0.1,1.3 0.2,2.7 0.4,4 0.2,2.2 0.4,4.4 0.7,6.9 0.1,1 0.2,2 0.4,3.1 0.2,2 0.5,4 0.8,6.2 0,0 0,0.1 0,0.1 0.3,2.3 0.7,5 1.1,7.8 l 0.1,0.8 c 0.1,0.4 0.1,0.8 0.2,1.2 0.1,0.3 0.1,0.6 0.2,0.9 0.3,2.1 0.7,4.4 1.1,6.6 0.1,0.7 0.2,1.4 0.4,2.1 0.1,0.4 0.2,0.8 0.2,1.2 l 0.2,1.1 c 0.3,1.4 0.5,2.9 0.8,4.3 0.7,3.6 1.5,7.3 2.4,11.3 l 0.2,0.8 c 0.1,0.4 0.2,0.8 0.3,1.2 0.9,4.2 1.9,8.1 2.9,12.1 3,11.6 6.4,23 10.1,33.8 1.6,4.8 3,8.7 4.3,12.1 0.7,2.1 1.5,4.1 2.3,6.1 0,0 0,0.1 0.1,0.2 v 0.1 0 c 0,0 0,0.1 0,0.1 1.6,4.2 3.2,8 4.7,11.6 0.8,2 1.7,3.9 2.5,5.9 0.9,2 1.7,3.9 2.6,5.9 0.9,2 1.8,3.9 2.7,5.9 1.7,3.6 3.3,6.8 4.8,9.9 l 0.2,0.3 c 0.2,0.5 0.5,0.9 0.7,1.4 l 0.5,1 c 0.5,1 1,2 1.6,3.1 0.4,0.8 0.8,1.6 1.2,2.3 1,1.9 1.8,3.5 2.6,4.9 0,0 0,0.1 0.1,0.1 1,1.9 2,3.7 3.1,5.7 2.2,3.9 4.3,7.5 6.4,11.1 0,0 0,0 0,0 0,0 0,0 0,0 l 0.4,0.7 c 0.8,1.3 1.8,3.1 2.9,4.8 1.1,1.9 2.3,3.8 3.4,5.5 0,0 0,0 0,0 0,0 0,0 0,0 l 0.5,0.8 c 0.8,1.3 1.6,2.5 2.4,3.7 0.1,0.1 0.2,0.3 0.3,0.4 0.1,0.2 0.2,0.3 0.3,0.5 l 0.1,0.2 c 1.1,1.7 2.2,3.4 3.4,5.1 1.3,1.9 2.7,4 4.5,6.5 l 0.4,0.5 c 1.6,2.3 3.3,4.7 5.1,7.1 2.1,2.8 4.2,5.6 6.3,8.3 1.8,2.4 3.5,4.4 5,6.3 2.1,2.6 4.1,5.1 6,7.3 0.9,1.2 1.9,2.3 2.8,3.4 0.6,0.8 1.4,1.6 2.2,2.6 l 0.3,0.3 c 0.7,0.8 1.4,1.6 2.1,2.5 l 0.7,0.8 c 1.6,1.9 3.5,3.9 5.9,6.5 1.4,1.5 3,3.3 4.6,4.9 2.5,2.7 5.2,5.4 7.6,7.9 27,27.2 57.4,51 90.4,70.6 -16.2,-1.1 -32.3,-3 -47.8,-5.7 l -0.7,-0.1 c -1.4,-0.2 -2.7,-0.5 -4.1,-0.8 -0.8,-0.2 -1.6,-0.3 -2.4,-0.5 l -2.4,-0.5 c -1.9,-0.4 -3.8,-0.7 -5.6,-1.1 l -0.6,-0.1 c -23.7,-5 -47.1,-12 -69.6,-20.8 -2.5,-1 -5.1,-2 -7.5,-3.1 l -1.5,-0.6 c -0.6,-0.3 -1.3,-0.5 -1.9,-0.8 -0.9,-0.4 -1.8,-0.7 -2.7,-1.1 -7,-3 -14.3,-6.4 -22.3,-10.3 -0.6,-0.3 -1.2,-0.6 -1.8,-0.9 -0.8,-0.4 -1.6,-0.8 -2.5,-1.2 -0.2,-0.1 -0.4,-0.2 -0.7,-0.3 -0.2,-0.1 -0.4,-0.2 -0.7,-0.4 -12.7,-6.5 -25.2,-13.6 -36.9,-21.1 -10.2,-6.5 -20.4,-13.6 -30.2,-21.1 -0.5,-0.4 -0.9,-0.7 -1.4,-1.1 -0.4,-0.3 -0.7,-0.6 -1.1,-0.9 -15.5,-12 -30.3,-24.9 -43.9,-38.5 -34.6,-34.6 -63,-74.1 -84.7,-117.4 1.1,-41.3 7.2,-82.2 18.7,-121.8 z m 454.1,215 c -47.4,-8.5 -92.8,-24.5 -134.9,-47.4 9.8,0.6 19.6,1 29.1,1 26.4,0 53.1,-2.3 79.3,-6.9 44.2,-7.8 86.8,-21.9 126.6,-42 9.4,-4.7 18.9,-10 28.2,-15.5 0.2,-0.1 0.4,-0.2 0.6,-0.3 0.3,-0.1 0.6,-0.3 0.9,-0.4 0,0 0.1,0 0.1,-0.1 l 0.5,-0.4 c 0.2,-0.1 0.3,-0.3 0.4,-0.4 6,-3.6 12,-7.5 17.8,-11.3 l 0.7,-0.4 c 0.1,-0.1 0.2,-0.2 0.3,-0.3 14.2,-9.6 27.9,-20 40.8,-31.1 0.2,0 0.4,-0.1 0.6,-0.3 0.1,-0.1 0.2,-0.2 0.2,-0.4 12.7,-10.9 24.9,-22.6 36.3,-34.9 48.5,-52 84.6,-115.4 104.5,-183.4 8.5,-29.1 14,-59.2 16.5,-89.6 22.4,55.1 33.6,113.4 33.1,173.2 0,5.1 -0.2,10.3 -0.4,15.4 v 0.6 c -0.2,5.1 -0.5,10 -0.9,14.7 0,0.4 -0.1,0.9 -0.1,1.3 0,0.4 -0.1,0.8 -0.1,1.2 -0.3,3.5 -0.7,8.2 -1.2,12.8 -0.1,0.7 -0.2,1.4 -0.3,2.1 -0.1,0.6 -0.2,1.1 -0.2,1.7 -0.4,3.7 -0.9,7.6 -1.4,11.4 -0.1,1 -0.3,2 -0.5,3 -0.1,0.7 -0.2,1.4 -0.3,2.1 l -0.3,1.8 c -0.4,2.7 -0.8,5.4 -1.3,8.2 -0.2,1.2 -0.5,2.4 -0.7,3.6 -0.2,0.8 -0.3,1.5 -0.5,2.3 l -0.4,2.2 c -0.4,2.3 -0.9,4.6 -1.4,7 -0.3,1.3 -0.6,2.5 -0.9,3.8 -0.2,0.8 -0.4,1.6 -0.5,2.3 l -0.5,2.3 c -0.5,2.1 -1,4.3 -1.5,6.4 -0.4,1.4 -0.7,2.8 -1.1,4.2 -0.2,0.8 -0.4,1.6 -0.7,2.4 l -0.6,2.4 c -0.5,1.9 -1,3.8 -1.5,5.7 -0.5,1.6 -0.9,3.1 -1.4,4.7 -0.2,0.8 -0.5,1.6 -0.7,2.4 -0.2,0.8 -0.5,1.6 -0.7,2.4 -0.5,1.7 -1,3.4 -1.6,5.1 -0.5,1.6 -1.1,3.3 -1.7,4.9 -0.3,0.8 -0.5,1.6 -0.8,2.4 -0.3,0.8 -0.5,1.6 -0.8,2.4 -0.5,1.6 -1.1,3.2 -1.6,4.7 -0.6,1.7 -1.2,3.3 -1.9,4.9 -0.3,0.8 -0.6,1.6 -0.9,2.4 -0.3,0.8 -0.6,1.6 -0.9,2.4 -0.6,1.5 -1.1,3.1 -1.8,4.6 -0.7,1.6 -1.3,3.3 -2,4.9 -0.3,0.8 -0.7,1.5 -1,2.3 -0.3,0.8 -0.6,1.5 -1,2.3 -0.6,1.5 -1.3,3 -1.9,4.5 -0.7,1.6 -1.5,3.3 -2.2,4.9 -0.4,0.8 -0.7,1.5 -1.1,2.3 -0.4,0.8 -0.7,1.5 -1,2.3 -0.7,1.5 -1.3,3 -2,4.4 -0.8,1.6 -1.6,3.2 -2.4,4.8 -0.4,0.8 -0.8,1.5 -1.1,2.3 -0.4,0.7 -0.7,1.5 -1.1,2.2 -0.7,1.5 -1.5,2.9 -2.2,4.4 -0.8,1.5 -1.6,3 -2.4,4.5 -0.4,0.7 -0.8,1.5 -1.2,2.2 -0.4,0.7 -0.8,1.5 -1.2,2.2 -0.8,1.5 -1.6,3 -2.5,4.5 -0.8,1.4 -1.6,2.8 -2.5,4.2 -0.4,0.7 -0.9,1.4 -1.3,2.1 -0.4,0.7 -0.8,1.4 -1.2,2.1 -0.9,1.5 -1.7,2.9 -2.6,4.4 -35.2,21.6 -73.1,38.2 -112.7,49.3 -65.7,18.3 -135.8,21.6 -202.9,9.6 z M 7935,-1517.4 c 0,0 0.1,0 0,0 0.1,-0.1 0.1,-0.1 0.2,-0.1 0,0 0,0 0,0 0,0 0.1,0 0.1,0 2.7,-1.2 5.3,-2.3 8,-3.4 2.7,-1.1 5.4,-2.2 8.2,-3.3 0.1,0 0.2,-0.1 0.3,-0.1 l 0.7,-0.3 c 15,-5.1 30.7,-7.6 46.7,-7.6 68.7,0 128.7,48.9 142.5,116.2 2,9.6 3,19.4 3,29.3 0,3.1 -0.1,6.2 -0.3,9.5 -0.6,9.9 -2.3,19.6 -4.8,29.1 -5.7,20.8 -15.9,39.8 -30.2,56.4 l -0.3,0.3 c -9.3,10.8 -20.2,20.1 -32.2,27.7 -23.2,14.7 -50,22.4 -77.6,22.4 -1.7,0 -3.4,0 -5.1,-0.1 -25.6,-0.9 -50.6,-8.6 -72.2,-22.2 -4,-2.5 -8,-5.3 -11.7,-8.2 7,-4.8 14.9,-9.8 23,-14.7 10,-6 15.4,-17 13.8,-28.1 0,-0.3 -0.1,-0.6 -0.1,-0.7 -2.4,-15.2 -15.4,-27.4 -30.7,-29 -10,-1 -19.6,2.1 -27,8.8 -7.3,6.6 -11.5,16 -11.5,25.9 0,5.8 1.4,11.5 4.2,16.5 0,0.1 0.1,0.2 0.2,0.2 0.3,0.4 0.8,1 1.7,2.2 l 1.7,2.1 c 2.3,2.8 2.9,3.4 4.4,4.9 l 0.1,0.1 c 0.4,0.4 0.9,0.8 1.4,1.4 v 0.4 c 0,0.5 0.4,1 1,1 h 0.5 c 3,3 6.1,5.9 9.4,8.7 -0.3,0.2 -0.5,0.4 -0.7,0.5 -1.5,1 -3.1,2.1 -5,3.6 -0.6,0.4 -1.1,0.8 -1.6,1.2 -0.2,0.1 -0.4,0.3 -0.5,0.4 -0.2,0.1 -0.3,0.2 -0.5,0.3 -1,0.7 -2,1.5 -2.9,2.2 l -0.1,0.1 c -0.2,0.2 -0.5,0.4 -0.8,0.6 -0.4,0.3 -0.8,0.6 -1.1,0.8 -2.1,1.5 -4.1,3.1 -6,4.6 -0.7,0.6 -1.5,1.2 -2.3,1.8 l -0.3,0.2 c -1.9,1.5 -4,3.3 -6.7,5.4 l -0.4,0.3 c -0.8,0.6 -1.5,1.2 -2.3,1.9 l -1,0.8 c -0.1,0.1 -0.2,0.2 -0.3,0.3 l -2.1,1.8 c -1.4,1.2 -2.8,2.4 -4.7,4.1 -3.7,3.2 -7.4,6.6 -11.2,10.2 -1.3,1.2 -2.7,2.6 -4.4,4.2 l -1.5,1.4 c -1.6,1.5 -3.3,3.2 -4.9,4.9 -1.5,1.5 -2.9,2.9 -4.3,4.4 l -0.5,0.5 c -0.2,0.2 -0.4,0.4 -0.6,0.6 -1.9,2 -3.7,4 -5.5,5.9 l -0.5,0.5 c -0.8,0.9 -1.7,1.9 -2.5,2.8 -1,1.1 -1.9,2.1 -2.9,3.2 -1.3,1.4 -2.4,2.7 -3.5,4 -1.7,2 -3.5,4 -5.1,6 -40.9,48.7 -70.7,104.4 -88.5,165.4 -10.8,36.8 -16.8,74.9 -17.9,113.5 -29.3,-62.5 -44,-131.9 -42.5,-201.2 0,-0.4 0,-0.8 0,-1.3 0,-0.5 0,-0.9 0,-1.4 h -1 v 0 l 1,-0.1 c 0.1,-4.9 0.4,-9.8 0.6,-14.6 4.9,-82.1 32.1,-161.1 78.6,-228.5 0,0 0.1,-0.1 0.1,-0.1 6.3,-9.1 13.2,-18.3 20.6,-27.4 10.1,-12.4 20.8,-24.3 31.8,-35.4 25.1,-25.1 52.9,-47.1 82.8,-65.4 6.6,-4.1 13.3,-8 20.2,-11.7 2.1,-1.1 4.2,-2.3 6.3,-3.4 2.1,-1.1 4.3,-2.3 6.8,-3.5 1.9,-1 4,-2 6.7,-3.3 2,-1 4.1,-2 6.8,-3.2 2.3,-1.1 4.5,-2.1 6.9,-3.2 z"
             class="st0" />
        </g>
        <g
           style="fill:#333333;fill-opacity:1;stroke-width:2.46926"
           id="g54">
          <path
             style="fill:#333333;fill-opacity:1;stroke-width:2.46926"
             id="path8"
             d="m 7606.2,-976.7 -35.3,8.2 c -3.5,0.8 -6.8,0.3 -9.8,-1.6 -3,-1.9 -4.9,-4.6 -5.7,-8.1 l -1.2,-5 c -0.4,-1.7 0.3,-2.7 1.9,-3.1 1.6,-0.4 2.7,0.3 3.1,1.9 l 1.2,5 c 0.5,2.1 1.6,3.7 3.5,4.9 1.8,1.1 3.8,1.4 5.9,1 l 35.3,-8.2 c 1.7,-0.4 2.7,0.3 3.1,1.9 0.3,1.7 -0.3,2.8 -2,3.1 z"
             class="st0" />
          <path
             style="fill:#333333;fill-opacity:1;stroke-width:2.46926"
             id="path10"
             d="m 7582.1,-898.1 c -1.6,0.6 -2.7,0 -3.3,-1.6 -0.4,-1.2 -0.1,-2.2 0.8,-2.9 l 9.3,-7.2 -6.2,-17.6 -11.8,0.2 c -1.2,0 -2.1,-0.6 -2.5,-1.8 -0.6,-1.6 0,-2.7 1.6,-3.3 0.3,-0.1 0.6,-0.2 0.8,-0.2 l 48.8,-0.8 c 1.5,0 2.4,0.6 2.8,1.8 0.4,1.2 0.1,2.2 -1,3.1 l -38.7,29.9 c -0.1,0.2 -0.3,0.3 -0.6,0.4 z m 30.2,-29.8 -24.1,0.4 5,14.4 z"
             class="st0" />
          <path
             style="fill:#333333;fill-opacity:1;stroke-width:2.46926"
             id="path12"
             d="m 7616.5,-846.9 c -3.2,1.5 -6.5,1.7 -9.9,0.5 -3.4,-1.2 -5.9,-3.4 -7.4,-6.6 -2.8,-5.8 -3.5,-11.7 -2.3,-17.8 0.2,-0.9 0.7,-1.6 1.4,-1.9 0.6,-0.3 1.3,-0.3 2,-0.1 0.7,0.2 1.2,0.7 1.5,1.3 0.2,0.4 0.3,0.9 0.2,1.5 -0.2,1.8 -0.2,4.4 -0.2,8 0.3,2.2 0.9,4.5 2,6.7 0.9,1.9 2.4,3.3 4.4,4 2,0.7 4,0.6 5.9,-0.3 2.9,-1.4 4.3,-3.7 4.4,-6.9 l 0.4,-16.4 c 0.1,-5.3 2.6,-9 7.3,-11.3 3.2,-1.5 6.5,-1.7 9.9,-0.5 3.4,1.2 5.9,3.4 7.4,6.6 2.7,5.5 3.8,10.1 3.5,13.9 -0.1,1.2 -0.6,2 -1.5,2.4 -0.6,0.3 -1.3,0.3 -2,0.1 -0.7,-0.2 -1.2,-0.7 -1.5,-1.3 -0.1,-0.2 -0.2,-0.6 -0.2,-1.1 -0.3,-4.3 -1.3,-8.2 -3,-11.7 -0.9,-1.9 -2.4,-3.3 -4.4,-4 -2,-0.7 -4,-0.6 -5.9,0.3 -2.9,1.4 -4.3,3.6 -4.4,6.8 l -0.4,16.4 c 0,5.3 -2.5,9.1 -7.2,11.4 z"
             class="st0" />
          <path
             style="fill:#333333;fill-opacity:1;stroke-width:2.46926"
             id="path14"
             d="m 7681.1,-813.7 c 0.9,1.5 0.6,2.7 -0.8,3.6 l -39.5,24.7 c -1.5,0.9 -2.7,0.6 -3.6,-0.8 -0.9,-1.5 -0.6,-2.7 0.8,-3.6 l 32.3,-20.2 -19,-0.6 c -1.3,0 -2.1,-0.4 -2.6,-1.2 -0.5,-0.8 -0.5,-1.7 0,-2.9 l 7.8,-17.3 -32.3,20.2 c -1.5,0.9 -2.7,0.6 -3.6,-0.8 -0.9,-1.5 -0.6,-2.7 0.8,-3.6 l 39.5,-24.7 c 1.5,-0.9 2.7,-0.6 3.6,0.8 0.5,0.8 0.5,1.7 0.1,2.6 l -9.8,21.8 24.1,0.7 c 1,0.1 1.7,0.5 2.2,1.3 z"
             class="st0" />
          <path
             style="fill:#333333;fill-opacity:1;stroke-width:2.46926"
             id="path16"
             d="m 7665.8,-747.2 c -1.1,-1.4 -0.9,-2.6 0.4,-3.6 l 36.5,-29 c 1.4,-1.1 2.6,-0.9 3.6,0.4 1,1.3 0.9,2.6 -0.4,3.6 l -36.5,29 c -1.3,1.1 -2.6,1 -3.6,-0.4 z"
             class="st0" />
          <path
             style="fill:#333333;fill-opacity:1;stroke-width:2.46926"
             id="path18"
             d="m 7724.5,-701 26,-25.8 c 1.2,-1.2 2.4,-1.2 3.7,0 1.2,1.2 1.2,2.4 0,3.7 l -33.1,32.9 c -1.2,1.2 -2.4,1.2 -3.7,0 -0.7,-0.7 -1,-1.6 -0.7,-2.5 l 12.1,-41.7 -26,25.9 c -1.2,1.2 -2.4,1.2 -3.7,0 -1.2,-1.2 -1.2,-2.4 0,-3.7 l 33.1,-32.9 c 1.2,-1.2 2.4,-1.2 3.7,0 0.7,0.7 0.9,1.7 0.6,2.8 z"
             class="st0" />
          <path
             style="fill:#333333;fill-opacity:1;stroke-width:2.46926"
             id="path20"
             d="m 7819.1,-644.3 -9.6,2.6 -9.2,14.4 c -0.9,1.5 -2.1,1.7 -3.6,0.8 -1.5,-0.9 -1.7,-2.1 -0.8,-3.6 l 25,-39.3 c 0.9,-1.5 2.1,-1.7 3.6,-0.8 1.5,0.9 1.7,2.1 0.8,3.6 l -11.7,18.4 30.6,-8.4 c 0.8,-0.2 1.5,-0.1 2.1,0.3 1.5,0.9 1.7,2.1 0.8,3.6 -0.4,0.6 -0.9,0.9 -1.5,1.1 l -21.2,5.8 -1.9,31.2 c 0,0.5 -0.2,0.9 -0.4,1.3 -0.4,0.6 -0.9,0.9 -1.6,1.1 -0.7,0.2 -1.4,0.1 -1.9,-0.3 -0.9,-0.6 -1.3,-1.4 -1.2,-2.4 z"
             class="st0" />
          <path
             style="fill:#333333;fill-opacity:1;stroke-width:2.46926"
             id="path22"
             d="m 7878.5,-605.1 0.1,20.2 c 0,0.5 -0.1,0.9 -0.2,1.2 -0.3,0.6 -0.8,1 -1.5,1.3 -0.7,0.2 -1.4,0.2 -2,-0.1 -1,-0.5 -1.5,-1.3 -1.5,-2.3 l -0.2,-21.6 c -0.2,-0.1 -0.5,-0.2 -0.9,-0.4 l -9.3,-4.6 -8,16.3 c -0.8,1.6 -1.9,1.9 -3.5,1.2 -1.5,-0.8 -1.9,-1.9 -1.2,-3.5 l 20.6,-41.9 c 0.8,-1.6 1.9,-1.9 3.5,-1.2 l 11.6,5.7 c 3.9,1.9 6.5,4.9 7.9,8.9 1.4,4 1.1,8 -0.8,11.9 -3,6.5 -7.9,9.4 -14.6,8.9 z m -4,-29.5 -9.1,18.6 9.3,4.6 c 2.6,1.3 5.3,1.5 7.9,0.5 2.7,-0.9 4.7,-2.7 5.9,-5.3 1.3,-2.6 1.5,-5.3 0.5,-7.9 -0.9,-2.7 -2.7,-4.7 -5.3,-5.9 z"
             class="st0" />
          <path
             style="fill:#333333;fill-opacity:1;stroke-width:2.46926"
             id="path24"
             d="m 7940,-559.5 c -0.6,1.6 -1.7,2.1 -3.3,1.6 -1.2,-0.4 -1.8,-1.3 -1.7,-2.5 l 0.3,-11.8 -17.6,-6.3 -7.3,9.3 c -0.8,1 -1.7,1.2 -2.9,0.8 -1.6,-0.6 -2.1,-1.7 -1.6,-3.3 0.1,-0.3 0.2,-0.5 0.4,-0.7 l 30.2,-38.3 c 0.9,-1.1 2,-1.5 3.1,-1.1 1.2,0.4 1.8,1.3 1.7,2.8 l -1.2,48.9 c 0.1,0 0,0.3 -0.1,0.6 z m -4,-42.3 -14.9,18.9 14.3,5.2 z"
             class="st0" />
          <path
             style="fill:#333333;fill-opacity:1;stroke-width:2.46926"
             id="path26"
             d="m 7996.3,-554.8 8.5,-35.6 c 0.4,-1.7 1.4,-2.3 3.1,-1.9 1.7,0.4 2.3,1.4 1.9,3.1 l -10.9,45.4 c -0.4,1.7 -1.4,2.3 -3.1,1.9 -1,-0.2 -1.7,-0.8 -1.9,-1.8 l -11.6,-41.8 -8.5,35.7 c -0.4,1.7 -1.4,2.3 -3.1,1.9 -1.7,-0.4 -2.3,-1.4 -1.9,-3.1 l 10.9,-45.4 c 0.4,-1.7 1.4,-2.3 3.1,-1.9 1,0.2 1.7,0.9 2,2 z"
             class="st0" />
          <path
             style="fill:#333333;fill-opacity:1;stroke-width:2.46926"
             id="path28"
             d="m 8046.1,-533.5 c -1.7,-0.2 -2.5,-1.2 -2.3,-2.9 l 5.8,-46.3 c 0.2,-1.7 1.2,-2.5 2.9,-2.3 1.7,0.2 2.5,1.2 2.3,2.9 l -5.8,46.3 c -0.2,1.7 -1.2,2.5 -2.9,2.3 z"
             class="st0" />
          <path
             style="fill:#333333;fill-opacity:1;stroke-width:2.46926"
             id="path30"
             d="m 8120.8,-580.9 c 1.7,0 2.6,0.9 2.6,2.6 0,1.7 -0.9,2.6 -2.6,2.6 l -10.4,-0.1 c -2.2,0 -4,0.7 -5.5,2.2 -1.5,1.5 -2.3,3.3 -2.3,5.5 l -0.3,25.9 c 0,2.1 0.7,4 2.2,5.5 1.5,1.5 3.3,2.3 5.5,2.3 l 10.4,0.1 c 1.7,0 2.6,0.9 2.6,2.6 0,1.7 -0.9,2.6 -2.6,2.6 l -10.4,-0.1 c -3.6,0 -6.6,-1.3 -9.1,-3.9 -2.5,-2.6 -3.7,-5.6 -3.7,-9.2 l 0.3,-25.9 c 0,-3.6 1.3,-6.6 3.9,-9.1 2.6,-2.5 5.6,-3.7 9.2,-3.7 z"
             class="st0" />
          <path
             style="fill:#333333;fill-opacity:1;stroke-width:2.46926"
             id="path32"
             d="m 8158,-533 -4.6,-46.4 c -0.2,-1.7 0.6,-2.7 2.3,-2.8 1.7,-0.2 2.7,0.6 2.8,2.3 l 1.8,18 20.6,-2.1 -1.8,-18 c -0.2,-1.7 0.6,-2.7 2.3,-2.8 1.7,-0.1 2.7,0.6 2.8,2.3 l 4.6,46.4 c 0.2,1.7 -0.6,2.7 -2.3,2.8 -1.7,0.2 -2.7,-0.6 -2.8,-2.3 l -2.3,-23.2 -20.6,2.1 2.3,23.2 c 0.2,1.7 -0.6,2.7 -2.3,2.8 -1.7,0.1 -2.7,-0.6 -2.8,-2.3 z"
             class="st0" />
          <path
             style="fill:#333333;fill-opacity:1;stroke-width:2.46926"
             id="path34"
             d="m 8285.3,-557 -14.7,-44.3 c -0.5,-1.6 0,-2.7 1.6,-3.3 l 19.7,-6.5 c 1.6,-0.5 2.7,0 3.3,1.6 0.6,1.6 0,2.7 -1.6,3.3 l -17.2,5.7 4.9,14.8 17.2,-5.7 c 1.6,-0.5 2.7,0 3.3,1.6 0.6,1.6 0,2.7 -1.6,3.3 l -17.2,5.7 7.3,22.1 c 0.5,1.6 0,2.7 -1.6,3.3 -1.8,0.6 -2.9,0.1 -3.4,-1.6 z"
             class="st0" />
          <path
             style="fill:#333333;fill-opacity:1;stroke-width:2.46926"
             id="path36"
             d="m 8365.5,-602.6 c 1.8,3.9 1.9,7.9 0.4,11.9 -1.5,4 -4.2,6.9 -8.1,8.7 -3.9,1.8 -7.9,1.9 -11.9,0.4 -4,-1.5 -6.9,-4.2 -8.7,-8.1 l -8.6,-18.8 c -1.8,-3.9 -1.9,-7.9 -0.4,-11.9 1.5,-4 4.2,-6.9 8.1,-8.7 3.9,-1.8 7.9,-2 11.9,-0.5 4,1.5 6.9,4.2 8.7,8.1 z m -4.7,2.2 -8.6,-18.8 c -1.2,-2.6 -3.1,-4.5 -5.8,-5.4 -2.7,-1 -5.3,-0.9 -7.9,0.3 -2.6,1.2 -4.5,3.1 -5.4,5.8 -1,2.7 -0.9,5.3 0.3,7.9 l 8.6,18.8 c 1.2,2.6 3.1,4.5 5.8,5.4 2.7,1 5.3,0.9 7.9,-0.3 2.6,-1.2 4.5,-3.1 5.4,-5.8 1,-2.6 0.9,-5.3 -0.3,-7.9 z"
             class="st0" />
          <path
             style="fill:#333333;fill-opacity:1;stroke-width:2.46926"
             id="path38"
             d="m 8375.6,-646 c -0.9,-1.5 -0.6,-2.7 0.9,-3.6 l 22.2,-13.4 c 1.5,-0.9 2.7,-0.6 3.6,0.9 0.9,1.5 0.6,2.7 -0.9,3.6 l -8.9,5.3 22.7,37.7 c 0.9,1.5 0.6,2.7 -0.9,3.6 -1.5,0.9 -2.7,0.6 -3.6,-0.9 l -22.7,-37.7 -8.9,5.3 c -1.4,1 -2.6,0.7 -3.5,-0.8 z"
             class="st0" />
          <path
             style="fill:#333333;fill-opacity:1;stroke-width:2.46926"
             id="path40"
             d="m 8470,-669.5 c 2.6,3.4 3.6,7.2 3.1,11.5 -0.6,4.3 -2.6,7.7 -6,10.3 -3.4,2.6 -7.2,3.6 -11.5,3.1 -4.3,-0.6 -7.7,-2.6 -10.3,-6 l -12.6,-16.5 c -2.6,-3.4 -3.6,-7.2 -3.1,-11.5 0.6,-4.3 2.6,-7.7 6,-10.3 3.4,-2.6 7.3,-3.7 11.5,-3.1 4.2,0.6 7.7,2.6 10.3,6 z m -4.1,3.1 -12.6,-16.5 c -1.8,-2.3 -4.1,-3.6 -6.9,-4 -2.8,-0.4 -5.4,0.3 -7.7,2.1 -2.3,1.8 -3.6,4.1 -4,6.9 -0.4,2.8 0.3,5.4 2.1,7.7 l 12.6,16.5 c 1.8,2.3 4.1,3.6 6.9,4 2.8,0.4 5.4,-0.3 7.7,-2.1 2.3,-1.8 3.6,-4.1 4,-6.9 0.4,-2.8 -0.3,-5.4 -2.1,-7.7 z"
             class="st0" />
          <path
             style="fill:#333333;fill-opacity:1;stroke-width:2.46926"
             id="path42"
             d="m 8510.2,-691.3 9.3,-9 -14.4,-15 -3.7,3.6 c -1.2,1.2 -2.5,1.2 -3.7,-0.1 -1.2,-1.3 -1.2,-2.5 0.1,-3.7 l 5.6,-5.4 c 1.2,-1.2 2.5,-1.2 3.7,0.1 l 17.9,18.8 c 1.2,1.2 1.2,2.5 -0.1,3.7 l -11.2,10.8 c -2.6,2.5 -5.7,3.7 -9.2,3.6 -3.6,-0.1 -6.6,-1.4 -9.1,-4 l -17.9,-18.7 c -2.5,-2.6 -3.7,-5.7 -3.6,-9.2 0.1,-3.5 1.4,-6.6 4,-9.1 l 11.2,-10.8 c 1.2,-1.2 2.5,-1.2 3.7,0.1 1.2,1.2 1.2,2.5 -0.1,3.7 l -11.2,10.8 c -1.6,1.5 -2.4,3.3 -2.4,5.5 0,2.2 0.7,4 2.2,5.5 l 17.9,18.7 c 1.5,1.6 3.3,2.4 5.4,2.4 2.2,-0.1 4,-0.8 5.6,-2.3 z"
             class="st0" />
          <path
             style="fill:#333333;fill-opacity:1;stroke-width:2.46926"
             id="path44"
             d="m 8546.4,-754.8 19.7,4.6 c 0.5,0.1 0.8,0.3 1.1,0.5 0.5,0.4 0.8,1 0.9,1.8 0.1,0.7 -0.1,1.4 -0.6,1.9 -0.7,0.8 -1.6,1.1 -2.6,0.9 l -21,-4.9 c -0.1,0.2 -0.3,0.4 -0.6,0.7 l -6.6,8 13.9,11.6 c 1.3,1.1 1.4,2.3 0.3,3.6 -1.1,1.3 -2.3,1.4 -3.6,0.3 l -35.8,-29.9 c -1.3,-1.1 -1.4,-2.3 -0.3,-3.6 l 8.3,-10 c 2.8,-3.3 6.3,-5.2 10.5,-5.6 4.3,-0.4 8,0.8 11.4,3.6 5.3,4.6 7,10.1 5,16.5 z m -29.7,-3.2 15.9,13.3 6.6,-8 c 1.9,-2.2 2.7,-4.8 2.4,-7.6 -0.3,-2.8 -1.5,-5.2 -3.7,-7 -2.2,-1.9 -4.8,-2.7 -7.6,-2.4 -2.8,0.3 -5.2,1.5 -7,3.7 z"
             class="st0" />
          <path
             style="fill:#333333;fill-opacity:1;stroke-width:2.46926"
             id="path46"
             d="m 8605.1,-803.9 c 1.4,1 1.7,2.1 0.7,3.6 -0.7,1 -1.6,1.4 -2.8,1.1 l -11.4,-3.1 -10.3,15.6 7.3,9.3 c 0.8,1 0.8,2 0.1,3 -1,1.4 -2.1,1.7 -3.6,0.7 -0.3,-0.2 -0.5,-0.4 -0.6,-0.6 l -30.1,-38.4 c -0.9,-1.2 -1,-2.3 -0.3,-3.3 0.7,-1 1.7,-1.4 3.1,-1 l 47.2,12.7 c 0.2,0.1 0.5,0.3 0.7,0.4 z m -42,-6 14.9,19 8.4,-12.7 z"
             class="st0" />
          <path
             style="fill:#333333;fill-opacity:1;stroke-width:2.46926"
             id="path48"
             d="m 8621.3,-832.1 -41.5,-21.3 c -1.5,-0.8 -1.9,-2 -1.1,-3.5 l 9.5,-18.4 c 0.8,-1.5 2,-1.9 3.5,-1.1 1.5,0.8 1.9,2 1.1,3.5 l -8.3,16.1 13.8,7.1 8.3,-16.1 c 0.8,-1.5 2,-1.9 3.5,-1.1 1.5,0.8 1.9,2 1.1,3.5 l -8.3,16.1 20.8,10.6 c 1.5,0.8 1.9,2 1.1,3.5 -0.8,1.5 -2,1.9 -3.5,1.1 z"
             class="st0" />
          <path
             style="fill:#333333;fill-opacity:1;stroke-width:2.46926"
             id="path50"
             d="m 8655.5,-900.8 c -0.6,1.6 -1.7,2.1 -3.3,1.5 l -43.6,-16.6 c -1.6,-0.6 -2.1,-1.7 -1.5,-3.3 0.6,-1.6 1.7,-2.1 3.3,-1.5 l 43.6,16.6 c 1.6,0.6 2.1,1.7 1.5,3.3 z"
             class="st0" />
          <path
             style="fill:#333333;fill-opacity:1;stroke-width:2.46926"
             id="path52"
             d="m 8669.1,-949.8 -45.2,-11.7 c -1.7,-0.4 -2.3,-1.5 -1.9,-3.2 l 5.2,-20.1 c 0.4,-1.7 1.5,-2.3 3.2,-1.9 1.7,0.4 2.3,1.5 1.9,3.2 l -4.5,17.6 15.1,3.9 3.2,-12.5 c 0.4,-1.7 1.5,-2.3 3.2,-1.9 1.7,0.4 2.3,1.5 1.9,3.2 l -3.2,12.5 20.1,5.2 4.5,-17.6 c 0.4,-1.7 1.5,-2.3 3.2,-1.9 1.7,0.4 2.3,1.5 1.9,3.2 l -5.2,20.1 c -0.7,1.7 -1.7,2.4 -3.4,1.9 z"
             class="st0" />
        </g>
        <g
           style="fill:#333333;fill-opacity:1;stroke-width:2.46926"
           id="g58">
          <path
             style="fill:#333333;fill-opacity:1;stroke-width:2.46926"
             id="path56"
             d="m 7572,-1102.7 c -1.4,0 -2.5,-1.1 -2.5,-2.5 0,-73.9 14.5,-145.6 43,-213.1 27.6,-65.2 67.1,-123.8 117.3,-174.1 50.3,-50.3 108.8,-89.8 174.1,-117.4 67.5,-28.6 139.2,-43 213.1,-43 73.9,0 145.6,14.5 213.1,43 65.2,27.6 123.8,67.1 174.1,117.3 50.3,50.3 89.8,108.8 117.4,174.1 28.6,67.5 43,139.2 43,213.1 0,1.4 -1.1,2.5 -2.5,2.5 -1.4,0 -2.5,-1.1 -2.5,-2.5 0,-144.9 -56.4,-281.2 -158.9,-383.7 -102.5,-102.5 -238.7,-158.9 -383.7,-158.9 -145,0 -281.2,56.4 -383.7,158.9 -102.5,102.5 -158.9,238.7 -158.9,383.7 0.1,1.5 -1.1,2.6 -2.4,2.6 z"
             class="st0" />
        </g>
      </g>
    </g>
    <rect
       y="9.9999952"
       x="10"
       height="128"
       width="190"
       id="rect1006"
       style="opacity:0.996;fill:none;fill-opacity:1;stroke:#ffffff;stroke-width:1;stroke-linecap:round;stroke-linejoin:round;stroke-miterlimit:4;stroke-dasharray:none;stroke-opacity:1" />
  </g>
</svg>
